<?xml version="1.0" encoding="UTF-8"?>
<svg id="Layer_2" data-name="Layer 2" xmlns="http://www.w3.org/2000/svg" viewBox="0 0 1340.97 173.49">
  <defs>
    <style>
      .cls-1 {
        fill: #bc9ba2;
      }
    </style>
  </defs>
  <g id="Layer_1-2" data-name="Layer 1">
    <g>
      <path class="cls-1" d="M1340.97,93.12c-2.18.86-4.72,1.26-7.29,1.62-12.72,1.76-25.34,1.44-37.84-.61-3.63-.6-7.23-1.24-10.81-1.91-5.63-1.06-10.9-2.54-16.05-4.15-4.49-1.4-8.92-2.86-13.47-4.19-7.68-2.25-15.65-4.13-24.23-5.22-8.34-1.07-16.77-1.26-25.28-1.03-1.72.05-3.12.5-4.58.9-3.33.91-4.01.7-4.92-1.23-1.01-2.15-.89-4.31-.55-6.48.6-3.86,1.42-7.7,1.4-11.59,0-.87.33-1.75.63-2.62.13-.39.47-.78.87-1.11.72-.61,2.48-.65,3.23-.05.56.44.96.95,1.28,1.46,1.09,1.74,2.1,3.49,3.17,5.23,1.27,2.07,2.94,4.04,5.28,5.84.88.68,1.92,1.06,3.52.84.61-.08,1.25-.1,1.88-.15,13.07-1.1,25.43.33,37.39,3.09,6.79,1.56,13.03,3.63,18.77,6.12,3.64,1.58,7.13,3.26,10.72,4.87,3.89,1.74,7.71,3.53,11.75,5.16,6.53,2.63,14.03,3.96,22.11,4.48,6.72.43,13.39.38,20.03-.33.98-.1,2-.11,3.01-.16v1.22Z"/>
      <path class="cls-1" d="M596.93,92.19c1.01-.94,1.98-1.89,3.03-2.83.91-.82,1.87-1.62,2.85-2.41,5.28-4.29,12.41-7.3,21.55-8.92,5.55-.98,10.9-2.2,16-3.74,5.32-1.61,10.23-3.53,14.82-5.68,2.97-1.4,5.48-3.02,7.77-4.74.66-.5,1.35-.99,2.1-1.44.54-.33,1.39-.47,2.07-.25.58.19,1.27.56,1.32.88.13.73.08,1.5-.2,2.22-.75,1.94-2.22,3.75-3.97,5.49-.96.96-1.91,1.92-2.71,2.91-.92,1.13-1.49,2.32-1.31,3.57.19,1.33,1.22,1.81,3.72,1.67,2.26-.12,4.5-.16,6.79-.15,2.14.01,4.27.03,6.4.15,2.54.14,3.53-.32,3.71-1.65.17-1.25-.31-2.45-1.24-3.58-.81-.99-1.78-1.95-2.73-2.91-1.93-1.93-3.51-3.93-4.19-6.09-.18-.59-.17-1.23.07-1.8.34-.82,2.15-1.05,3.32-.47.46.23.87.5,1.22.78,7.48,5.95,18.05,9.83,29.91,12.83,2.97.75,6.06,1.4,9.19,1.94,9.85,1.7,17.31,5,22.76,9.66,1.55,1.32,2.97,2.69,4.45,4.03.24.22.52.43.78.64,1.04-.18.72-.58.69-.87-.66-6.22-3.84-12.05-9.99-17.35-3.08-2.65-6.36-5.24-9.73-7.79-6.82-5.16-14.21-10.09-21.72-14.96-3.72-2.41-7.31-4.87-10.35-7.55-5.59-4.92-9.71-10.16-11.42-15.88-1.27-4.25-1.7-8.52-.42-12.79.2-.67.52-1.33.87-1.98.17-.32.48-.63.82-.91.54-.46,1.58-.75,2.23-.54.6.19,1.28.51,1.44.84.37.78.48,1.61.64,2.42.26,1.35.3,2.72.77,4.05.64,1.8,1.36,3.6,2.46,5.33,5.41,8.42,14.68,15.46,27.01,21.36,5.28,2.52,11.35,4.33,18.26,5.24,5.41.71,10.55.35,15.33-1.26,5.66-1.91,8.73-4.65,9.33-8.21.78-4.63-1.69-8.73-7.17-12.32-.72-.47-1.47-.94-2.09-1.44-.46-.37-.42-.83.23-1.11.44-.19,1.11-.29,1.69-.31.47-.02.97.13,1.44.22,8.59,1.63,15.8,4.27,21.14,8.28,1.18.88,2.37,1.77,3.63,2.62,1.36.92,3.02,1.66,5.12,2.04.83.15,1.71.24,2.58.29,1.25.07,2.25-.23,2.87-.8.44-.41.85-.86.98-1.31.21-.8.35-1.63.25-2.43-.49-3.87-2.66-7.46-6.64-10.71-3.49-2.86-7.56-5.46-12.2-7.79-8.27-4.16-17.23-7.8-27.23-10.69-3.12-.9-6.25-1.8-9.39-2.69-2.15-.6-4.36-1.08-6.86-1.09-.61,0-1.27-.08-1.83-.22-.74-.18-1.14-.54-1.07-.99.07-.44.5-.8,1.33-.88.86-.08,1.78-.13,2.63-.05,7.12.62,14.25,1.2,21.18,2.36,10.68,1.79,20.15,4.73,28.9,8.41,5.1,2.14,9.82,4.51,14.26,7.04,8.1,4.62,15.35,9.59,21.85,14.89,2.58,2.1,5.15,4.2,7.8,6.28,3.16,2.47,6.66,4.8,10.69,6.89,2.47,1.28,5.12,2.43,8.1,3.36,4.52,1.41,9.39,2.03,14.59,1.76,8.43-.43,16.38-1.73,23.8-3.93,6.95-2.06,11.67-5.19,14.69-9.05,1.17-1.49,1.72-3.12,2.54-4.68.2-.39.27-.81.52-1.19.28-.41.89-.66,1.77-.6.88.06,1.27.4,1.46.81.06.13.08.27.09.4.17,3.74.19,7.47-1.59,11.14-1.39,2.86-3.43,5.55-6.49,8-9.13,7.31-21.53,12.16-37.59,14.21-4.69.6-9.46,1.02-14.27,1.12-10.15.2-19.64-1.01-27.99-4.24-2.46-.95-4.72-2.05-7.08-3.08-1.87-.81-3.68-1.67-5.63-2.42-3.12-1.2-6.59-2.01-10.39-2.39-2.56-.25-5.02-.11-7.49.31-7.6,1.29-12.92,3.99-16.19,7.8-2.79,3.25-4.15,6.71-3.83,10.3.25,2.8,1.96,5.32,5.55,7.41,1.84,1.07,4.01,1.86,6.75,2.14,4.23.43,7.97-.59,9.5-2.73.53-.75.87-1.57.97-2.37.25-1.98-.03-3.94-1.29-5.83-.21-.31-.34-.65-.43-.98-.1-.33.69-.66,1.27-.53.45.1.91.23,1.28.39,2.4,1.11,4.8,2.22,7.16,3.35,4.36,2.09,9,3.97,13.93,5.65,8.79,3,18.4,4.84,28.64,5.72,4.49.39,9.05.71,13.59.78,19.48.3,37.63-2.32,54.5-7.51,7.94-2.44,15.36-5.29,22.44-8.38,8.85-3.86,17.59-7.79,26.36-11.71,7.41-3.31,14.99-6.49,22.94-9.42,10.7-3.94,21.98-7.28,34.26-9.6,7.2-1.36,14.63-2.2,22.18-2.72,3.89-.27,7.81-.47,11.71-.68,1-.05,2.03-.06,3.03-.02.94.04,1.67.53,1.6.98-.07.45-.56.76-1.37.87-.61.08-1.25.11-1.88.12-3.45.06-6.78.48-10.03,1.05-10.04,1.77-18.9,4.61-26.35,8.64-3.38,1.83-6.55,3.79-9.71,5.73-7.91,4.87-15.59,9.85-23.67,14.63-11.85,7.01-24.53,13.56-38.55,19.35-12.62,5.21-26.05,9.66-40.95,12.74-13.92,2.88-28.3,4.63-43.2,5.23-9.75.39-19.51.33-29.26.41-4.31.04-8.61.15-12.92.24-6.41.14-12.5,1.01-18.33,2.42-2.04.5-4.2.88-6.19,1.69.41.18.63.35.92.39,6.68.89,12.32,2.79,17.49,5.15,5.25,2.41,9.34,5.35,13.39,8.32.3.22.66.47.68.72.02.31-.11.71-.48.9-.37.19-1.19.3-1.68.22-.82-.14-1.51-.48-2.28-.72-2.51-.79-4.97-1.64-7.56-2.34-7.5-2.02-15.49-2.41-23.71-1.85-1.51.1-3,.26-4.5.41-8.06.83-14.53,3.13-19.79,6.41-3.88,2.42-7.55,4.94-11.25,7.45-.69.47-1.04,1.08-1.61,1.6-.64.58-1.26,1.18-2.05,1.7-.83.55-2.15.39-2.78-.26-.12-.12-.23-.24-.31-.37-2.46-3.87-4.82-7.76-4.91-11.89-.05-2.51.25-5.03.68-7.53.52-3.08.51-6.11-1.14-9.1-2.91-5.25-9.15-9.02-18.17-11.46-5.36-1.46-10.69-1.3-15.98.29-7.08,2.13-10.52,5.39-10.74,9.66-.21,3.95,1.54,7.69,4.73,11.23,1.9,2.11,4.65,3.89,8.12,5.32,2.11.87,4.35,1.65,6.5,2.48,1.54.6,3.1,1.18,4.53,1.85.74.34,1.37.82,1.76,1.3.72.88-.82,1.86-2.59,1.66-.98-.11-1.92-.35-2.85-.56-3.3-.74-6.63-.75-10.03-.2-3.84.62-7.18,1.68-10.14,3.11-6.01,2.89-10.11,6.45-12.22,10.61-1.23,2.42-2.08,4.9-2.82,7.38-.8,2.68-1.4,5.39-1.86,8.09-.39,2.3-.51,4.61-.65,6.92-.1,1.5-.39,2.98-1.39,4.4-.8,1.13-1.97,1.72-3.05,1.53-1.68-.29-2.24-1.05-2.44-1.89-.26-1.08-.52-2.16-.59-3.25-.14-2.04-.21-4.08-.2-6.12.02-2.25-.04-4.49-.76-6.71-1.02-3.15-1.78-6.32-3.12-9.43-1.94-4.47-6.11-8.32-12.49-11.44-3.04-1.48-6.46-2.6-10.44-3.23-3.41-.53-6.74-.53-10.03.23-.81.19-1.63.38-2.48.51-1.08.17-2.04-.05-2.67-.52-.59-.44-.59-.92-.05-1.34.65-.5,1.36-.99,2.22-1.38,1.35-.61,2.84-1.14,4.29-1.69,1.96-.75,3.99-1.45,5.89-2.24,4.2-1.74,7.34-3.93,9.35-6.57,2.53-3.31,3.98-6.73,3.7-10.33-.42-5.22-5.51-8.42-13.87-10.19-4.23-.9-8.5-.66-12.53.41-9.2,2.45-15.55,6.25-18.47,11.57-1.44,2.63-1.82,5.34-1.27,8.08.38,1.89.66,3.79.9,5.69.32,2.46,0,4.9-1.1,7.29-1.06,2.31-2.33,4.58-3.54,6.87-.21.39-.53.76-.9,1.12-.44.42-1.75.54-2.31.18-.8-.51-1.66-1.06-2.11-1.67-.81-1.11-2.12-2-3.48-2.89-2.4-1.58-4.71-3.2-7.15-4.77-1.7-1.09-3.46-2.17-5.36-3.17-4.64-2.43-10.12-4.08-16.53-4.72-2.86-.29-5.75-.51-8.65-.63-9.76-.43-18.51,1.13-26.54,4.02-.95.34-1.88.69-2.86,1-.74.24-1.47.14-2.07-.18-.61-.33-.63-.72-.25-1.12.17-.18.34-.37.56-.53,4.05-2.96,8.15-5.9,13.41-8.31,5.36-2.46,11.26-4.39,18.37-5.24-.27-.25-.37-.49-.63-.56-6.11-1.68-12.41-3.14-19.29-3.58-4.65-.3-9.35-.41-14.03-.47-7.1-.09-14.2-.03-21.29-.11-9.64-.11-19.22-.56-28.71-1.54-20.45-2.11-39.22-6.35-56.38-12.65-12.37-4.54-23.84-9.68-34.51-15.33-10.02-5.31-19.59-10.84-28.62-16.63-4.31-2.76-8.65-5.52-13.06-8.23-2.24-1.38-4.58-2.73-7.04-4.01-7.99-4.14-17.35-7.03-28.07-8.61-2.42-.36-4.98-.46-7.47-.69-.86-.08-1.76-.12-2.55-.29-.37-.08-.79-.43-.75-.64.04-.3.36-.72.78-.83.76-.19,1.7-.26,2.54-.23,3.03.11,6.06.26,9.09.42,17.42.94,33.58,3.9,48.67,8.65,10.31,3.24,19.95,6.98,29.19,11.03,9.03,3.95,17.92,8.01,26.91,11.99,6.84,3.03,13.91,5.91,21.35,8.51,9.84,3.44,20.33,6.09,31.74,7.65,9.63,1.32,19.37,2.09,29.34,1.82,9.68-.26,19.13-1.15,28.24-2.95,9.51-1.89,17.81-4.85,25.47-8.37,2.98-1.37,5.92-2.77,8.89-4.15.38-.17.79-.36,1.24-.44.3-.06.79-.01,1.05.09.26.1.5.35.45.51-.14.4-.45.77-.67,1.16-1.07,1.84-1.5,3.73-1.18,5.64.13.8.52,1.62,1.07,2.36,1.51,2.05,5.12,3.08,9.18,2.71,2.89-.26,5.16-1.08,7.09-2.21,2.92-1.7,4.78-3.74,5.19-6.01.95-5.24-.91-10.16-6.74-14.5-3.13-2.33-7.34-3.89-12.38-4.86-3.48-.67-6.92-.7-10.43-.12-3.69.6-7.03,1.55-10,2.86-2.55,1.12-5.03,2.29-7.54,3.43-5.82,2.66-12.5,4.33-20,5.13-6.06.64-12.11.56-18.15.05-3.5-.3-7-.66-10.4-1.19-15.69-2.45-27.59-7.56-35.97-15.05-3.99-3.56-5.96-7.49-6.54-11.61-.29-2.03-.13-4.08-.13-6.12,0-.32.18-.67.43-.97.42-.5,2.06-.57,2.54-.1.41.4.66.87.8,1.33,1.02,3.28,3.27,6.26,6.95,8.95,2.98,2.18,6.64,3.92,11.09,5.18,7.15,2.01,14.74,3.26,22.78,3.69,5.33.29,10.33-.31,14.96-1.77,3.08-.97,5.82-2.17,8.36-3.51,4-2.1,7.48-4.44,10.62-6.92,2.78-2.19,5.48-4.41,8.22-6.62,7.33-5.9,15.56-11.41,24.95-16.41,6.05-3.22,12.65-6.07,19.85-8.53,10.55-3.61,22.13-5.65,34.4-6.69,1.87-.16,3.74-.36,5.63-.47,1.11-.07,2.27-.06,3.38.03.79.06,1.27.44,1.33.88.06.45-.41.8-1.13.97-.56.13-1.22.21-1.83.21-2.08,0-4,.34-5.83.82-13.75,3.6-26.55,7.95-37.64,13.65-4.32,2.22-8.19,4.64-11.57,7.28-3.8,2.97-6.11,6.25-7.02,9.81-.26,1-.29,2.04-.2,3.05.05.59.39,1.21.84,1.76.79.96,2.02,1.29,4,1.13,2.49-.2,4.55-.87,6.16-1.87,1.49-.92,2.86-1.91,4.18-2.9,5.3-4.03,12.42-6.73,21.02-8.37.59-.11,1.19-.24,1.8-.3.8-.07,1.6.05,1.89.48.19.28.25.7,0,.94-.56.52-1.36.97-2.08,1.45-5.2,3.41-7.76,7.29-7.29,11.7.43,4.12,3.91,7.24,10.76,9.22,4.6,1.33,9.41,1.49,14.38.81,6.63-.91,12.51-2.63,17.6-5.05,12.58-5.97,21.97-13.12,27.46-21.68,1.57-2.45,2.61-4.97,2.88-7.56.11-1.09.31-2.17.53-3.25.08-.4.24-.81.56-1.17.51-.59,2.17-.74,2.89-.21.73.53,1.42,1.15,1.68,1.79.53,1.32.92,2.68,1.08,4.03,1.3,10.91-4.67,20.66-16.63,29.42-2.85,2.08-5.94,4.07-8.99,6.07-8.83,5.79-17.37,11.7-25.13,17.92-2.82,2.26-5.4,4.6-7.51,7.08-3.45,4.07-5.32,8.35-5.79,12.8-.04.38.07.76.11,1.15.22,0,.43.02.65.03Z"/>
      <path class="cls-1" d="M25.52,112.82c.46-.28.65-.47.93-.54.69-.16,1.42-.29,2.16-.39,8.61-1.15,15.68-3.73,22.15-6.86,1.02-.5,1.86-1.11,2.71-1.7,15.85-11.01,36.5-17.84,61.98-20.48,5.12-.53,10.28-.8,15.46-.99,3.94-.14,7.85.13,11.74.43,1.37.11,2.72.35,4.22.12.88-.66,1.02-1.49,1.4-2.27,2.36-4.87,4.75-9.73,8.39-14.38,5.92-7.56,13.29-14.68,22.98-21.04,14.05-9.23,31.6-16.02,51.77-20.92,13.73-3.33,28.13-5.33,43.11-6.24,10.5-.64,21.01-.71,31.51-.25,14.72.64,29.06,2.29,42.82,5.23,13.34,2.85,25.4,6.77,35.32,12.43,1.73.99,3.36,2.03,4.9,3.11.59.41.94.96,1.13,1.48.26.71-.94,1.37-2.28,1.27-1.11-.09-2.23-.28-3.23-.54-2.49-.67-4.94-1.38-7.37-2.12-10.07-3.05-20.53-5.62-31.6-7.44-16.33-2.68-33.01-3.38-50-2.59-16.21.75-31.17,3.43-45.18,7.8-11.1,3.46-20.43,8.01-28.78,13.18-5.32,3.29-10.24,6.76-14.4,10.5-4.28,3.85-8.49,7.73-12.55,11.65-3.82,3.69-6.91,7.57-9.57,11.54-.71,1.05-1.55,2.11-1.44,3.62.76-.57,1.21-.88,1.58-1.21,1.25-1.1,2.44-2.23,3.72-3.32,4.68-4.01,10.96-7.09,18.7-9.35,7.62-2.22,15.73-3.75,24.09-4.91,11.22-1.57,22.64-2.35,34.24-2.18,10.18.15,20.14,1.15,29.97,2.53.81.11,1.66.16,3.1.3-.79-.5-1.13-.77-1.57-.98-8.4-3.97-18.11-6.43-29.2-7.28-2-.15-4.03-.18-6.05-.28-.5-.02-1.02-.05-1.46-.16-.29-.07-.57-.29-.62-.46-.05-.17.11-.45.35-.53.51-.18,1.12-.33,1.71-.36,11.37-.7,22.73-1.07,34.06.19,7.36.82,14.41,2.1,21.14,3.89,12.71,3.38,24.16,7.71,34.34,13,4.1,2.13,8.14,4.29,12.1,6.49,9.89,5.49,20.61,10.47,32.03,15.02,11.74,4.68,24.14,8.76,37.86,11.58,12.03,2.48,24.45,3.96,37.34,4.39,7.48.25,14.94.32,22.42.26,1.38-.01,2.76.03,4.04.04.81.77.45,1.32-.64,1.67-.97.31-2.03.57-3.11.74-9,1.45-18.16,2.5-27.56,2.8-5.86.19-11.66-.18-17.39-.78-10.96-1.14-21.71-2.7-32.11-4.91-8.99-1.91-17.36-4.46-25.41-7.31-9.95-3.51-19.79-7.11-29.81-10.57-11.84-4.08-23.98-7.88-37.04-10.77-10.37-2.3-21.17-3.72-32.31-4.36-4.53-.26-9.09-.46-13.64-.59-8.39-.24-16.72.03-24.93,1.05-3.34.42-6.58,1.01-9.48,2.03-4,1.41-6.68,3.28-7.34,5.9-1.04,4.13,3.4,7.77,10.9,8.81,1.58.22,3.23.35,4.86.42,10.81.46,21.52.02,32.16-1.03,6.1-.6,12.2-1.23,18.35-1.7,3.88-.29,7.83-.4,11.75-.41,16.01-.05,31.5,1.51,46.49,4.51,9.7,1.94,18.58,4.65,26.61,8.16,5.41,2.36,10.75,4.76,16.17,7.12,3.35,1.46,6.88,2.78,10.69,3.88,4.84,1.39,9.91,2.41,15.38,2.82,1.25.09,2.52.21,3.71.41,1.42.24,1.8,1.31.65,1.83-.76.35-1.67.62-2.57.85-5.07,1.29-10.44,2.04-15.98,2.52-7.91.69-15.67.14-23.42-.61-9.61-.93-18.96-2.43-28.43-3.68-4.54-.6-9.15-1.07-13.76-1.51-6.45-.63-12.88-.34-19.28.29-1.12.11-2.25.19-3.39.22-1.1.03-1.97-.22-2.44-.78-.48-.58-.06-1.06.6-1.5.24-.16.51-.31.8-.44,7.19-3.18,14.82-5.95,23.94-7.29,2.07-.3,4.21-.47,6.31-.72.71-.08,1.4-.2,2.81-.41-1.48-.29-2.23-.5-3.04-.59-4.09-.45-8.16-1.01-12.3-1.28-7.43-.48-14.91-.54-22.4-.28-8.48.29-16.94.65-25.31,1.43-7.36.69-14.67,1.51-22.02,2.24-7.35.73-14.67,1.57-22.08,2.08-19.99,1.38-37.91-1.39-53.66-8.15-.59-.25-1.19-.5-1.79-.75-.09-.04-.23-.03-.39-.05-.98.31-.44.84-.54,1.27-.24,1.01-.2,2.05-.69,3.02-.85,1.66-3.16,2.08-5.85,1.16-.96-.33-1.85-.72-2.71-1.12-14.01-6.43-30.4-9.92-48.52-11.21-22.52-1.6-44.21-.02-64.96,5.01-2.07.5-4.03,1.14-5.97,1.78-5.3,1.74-10.51,3.55-15.84,5.26-4.7,1.5-9.72,2.64-15.09,3.26-1.97.23-3.99.39-6,.5-1.62.08-3.29.12-5.11-.54Z"/>
      <path class="cls-1" d="M1042.33,68.31c1.11-.13,1.96-.21,2.79-.32,11.2-1.55,22.53-2.66,34.15-2.53,16.78.18,32.94,1.96,48.33,5.6,2.66.63,5.24,1.37,7.76,2.15,6.36,1.97,11.59,4.61,15.66,7.89,1.54,1.24,2.93,2.54,4.41,3.81.52.45,1.11.88,1.96,1.54,0-.54.11-.81-.02-1.04-.74-1.3-1.44-2.61-2.35-3.87-2.85-4-6.12-7.91-10.09-11.63-3.59-3.36-7.15-6.73-10.89-10.05-6.54-5.78-14.39-11.02-23.46-15.72-15.66-8.11-34.24-13.24-55.63-15.32-11.14-1.09-22.41-1.21-33.72-.72-18.63.8-35.88,3.95-52.29,8.61-3.25.92-6.42,1.92-9.66,2.84-1.56.44-3.19.82-4.83,1.19-1.13.25-2.27.23-3.11-.33-.85-.56-.58-1.17.07-1.71.9-.74,1.82-1.48,2.9-2.14,5.44-3.35,11.61-6.26,18.59-8.67,11.96-4.13,25.01-6.83,38.8-8.58,16.54-2.1,33.31-2.77,50.22-1.99,37.7,1.75,69.6,10.03,95.51,24.86,4.78,2.73,8.93,5.74,12.65,8.91,7.66,6.52,14.25,13.32,18.45,20.72,1.74,3.05,3.18,6.15,4.77,9.23.23.45.53.9.84,1.43.93,0,1.82.07,2.65-.01,12.78-1.33,25.26-.3,37.57,1.5,22.04,3.23,39.83,9.88,53.63,19.63.54.38,1.04.79,1.68,1.1,6.04,2.95,12.49,5.54,20.48,6.83,1.78.29,3.72.4,5.22,1.01.05.51-.54.64-1.17.71-3.19.38-6.31.04-9.4-.32-5.37-.62-10.39-1.75-15.13-3.22-4.16-1.3-8.35-2.59-12.29-4.06-7.48-2.8-15.79-4.58-24.41-6.01-13.6-2.24-27.53-2.92-41.7-2.53-8.4.23-16.59,1.05-24.66,2.29-11.86,1.82-22.49,4.9-31.95,9.15-1.07.48-2.13.97-3.3,1.37-2.66.91-4.99.45-5.85-1.19-.41-.78-.51-1.6-.67-2.41-.12-.59-.11-1.2-.17-2.02-.79.27-1.32.4-1.76.6-10.2,4.68-22.07,7.41-35.23,8.51-6.66.56-13.42.53-20.08-.08-10.98-1.02-21.94-2.1-32.87-3.26-15.33-1.63-30.79-2.59-46.43-2.55-7.75.02-15.43.46-22.94,1.55-1.09.16-2.18.33-3.78.58.87.24,1.31.45,1.78.48,11.78.77,21.46,3.89,30.42,7.81.39.17.79.34,1.13.54.79.47,1.45.98.9,1.65-.53.65-1.59.86-2.81.8-1.13-.06-2.25-.17-3.38-.26-3.75-.33-7.52-.59-11.34-.58-6.26,0-12.34.64-18.38,1.44-7.74,1.03-15.46,2.11-23.2,3.15-6.28.84-12.64,1.47-19.08,1.76-10.06.46-19.68-.53-28.84-2.79-.57-.14-1.13-.31-1.66-.5-1.07-.38-1.48-.85-1.24-1.36.25-.52.96-.78,1.89-.88.87-.09,1.74-.19,2.62-.25,7.57-.54,14.37-2.14,20.63-4.42,2.83-1.03,5.53-2.16,8.21-3.3,3.37-1.44,6.74-2.89,9.96-4.42,12.6-5.99,27.25-9.79,43.44-12.08,10.86-1.54,21.89-2.23,33.08-2.3,7.51-.05,14.9.55,22.27,1.26,5.73.55,11.46,1.14,17.23,1.57,8.18.61,16.42.67,24.65.27,1-.05,2-.17,2.98-.3,8.81-1.17,13.57-5.78,10.75-10.4-.85-1.4-2.44-2.52-4.48-3.48-2.62-1.24-5.72-1.99-9.02-2.54-6.73-1.1-13.67-1.47-20.65-1.5-23.05-.11-45.08,2.22-65.56,8.13-9.26,2.68-18.4,5.45-27.16,8.59-9.17,3.28-18.41,6.51-27.56,9.8-14.48,5.21-30.28,8.74-47.22,10.88-5.43.68-10.86,1.31-16.4,1.69-7.12.48-14.16.23-21.19-.41-5.63-.51-11.18-1.18-16.63-2.08-1.2-.2-2.4-.45-3.51-.76-1.12-.32-1.6-.85-1.06-1.56,1.44-.36,2.98-.21,4.48-.2,7.35.05,14.69-.01,22.04-.26,16.4-.55,31.97-2.73,46.76-6.54,11.12-2.87,21.42-6.45,31.21-10.46,11.1-4.55,21.49-9.52,31.17-14.93,6.15-3.43,12.44-6.79,19.33-9.8,7.9-3.45,16.42-6.37,25.54-8.79,15.31-4.07,31.49-5.4,48.4-4.38,1.76.11,3.53.17,5.3.26.75.04,1.51.09,2.25.17.67.07,1.12.3,1.17.69.05.39-.52.72-1.49.72-4.72,0-9.32.43-13.86,1.11-8.19,1.24-15.44,3.39-21.83,6.39-.38.18-.73.38-1.07.58-.07.04-.07.12-.27.49Z"/>
      <path class="cls-1" d="M145.42,72.5c.23,1.85-.22,3.67-1.06,5.46-.48,1.02-1.62,1.31-3.4.92-.12-.03-.25-.04-.35-.08-2.93-1.17-6.32-1.19-9.78-1.25-12.63-.2-24.66,1.13-36.16,3.92-5.89,1.43-11.54,3.11-17.1,4.88-3.38,1.07-6.77,2.13-10.2,3.15-4.66,1.38-9.55,2.5-14.66,3.32-4.36.7-8.66,1.53-13.08,2.1-10.92,1.42-21.85,1.28-32.71-.25-1.82-.26-3.58-.66-5.32-1.06-.54-.12-.99-.4-1.4-.65-.5-.31-.03-.91.74-.94.75-.03,1.53-.03,2.26.05,6.78.73,13.58.76,20.42.3,7.54-.51,14.61-1.72,20.79-4.12,3.99-1.55,7.75-3.28,11.55-4.97,3.9-1.74,7.63-3.58,11.57-5.29,10.74-4.64,22.84-7.76,36.45-9.12,6.4-.64,12.82-.79,19.28-.23.87.08,1.77.09,2.63.19,1.43.17,2.43-.1,3.26-.72,2.24-1.67,3.88-3.5,5.12-5.44,1.14-1.8,2.19-3.62,3.3-5.42.32-.51.64-1.03,1.09-1.52.41-.45,1.12-.75,2.13-.7.99.05,1.67.38,1.94.85.4.71.72,1.44.91,2.18.17.67.1,1.36.17,2.03.3,2.71.6,5.42.95,8.13.18,1.42.44,2.84.66,4.26Z"/>
    </g>
  </g>
</svg>